<?xml version="1.0" encoding="utf-8"?>
<!-- Generator: Adobe Illustrator 22.0.1, SVG Export Plug-In . SVG Version: 6.00 Build 0)  -->
<svg version="1.1" id="Layer_1" xmlns="http://www.w3.org/2000/svg" xmlns:xlink="http://www.w3.org/1999/xlink" x="0px" y="0px"
	 viewBox="0 0 135.7 101.3" style="enable-background:new 0 0 135.7 101.3;" xml:space="preserve">
<style type="text/css">
	.st0{fill:none;stroke:#000000;stroke-width:4;}
	.st1{fill:none;stroke:#000000;stroke-width:4;stroke-dasharray:4;}
	.st2{fill:none;stroke:#A50D12;stroke-width:4;}
</style>
<g>
	<path class="st0" d="M68.3,5c-24.3,0-44,19.7-44,44c0,10.9,3.9,20.8,10.5,28.4L24.5,96.9L43.2,85c7.1,5,15.8,7.9,25.1,7.9
		c24.3,0,44-19.7,44-44C112.2,24.7,92.5,5,68.3,5z"/>
	<path class="st1" d="M104.1,45"/>
	<g>
		<polyline class="st2" points="72.4,71 72.4,44.9 54.3,44.9 		"/>
		<polyline class="st2" points="61.9,44.9 61.9,71 79.9,71 		"/>
	</g>
	<path class="st2" d="M73.2,29.8c0,3.4-2.7,6.1-6.1,6.1c-3.4,0-6.1-2.7-6.1-6.1c0-3.4,2.7-6.1,6.1-6.1
		C70.5,23.7,73.2,26.4,73.2,29.8z"/>
</g>
</svg>
