<?xml version="1.0" encoding="utf-8"?>
<!-- Generator: Adobe Illustrator 22.0.1, SVG Export Plug-In . SVG Version: 6.00 Build 0)  -->
<svg version="1.1" id="Layer_1" xmlns="http://www.w3.org/2000/svg" xmlns:xlink="http://www.w3.org/1999/xlink" x="0px" y="0px"
	 viewBox="0 0 135.7 101.3" style="enable-background:new 0 0 135.7 101.3;" xml:space="preserve">
<style type="text/css">
	.st0{fill:none;stroke:#FFFFFF;stroke-width:4;}
</style>
<g>
	<path class="st0" d="M74.3,4.3c-24.3,0-44,19.7-44,44c0,10.9,3.9,20.8,10.5,28.4L30.5,96.2l18.6-11.8c7.1,5,15.8,7.9,25.1,7.9
		c24.3,0,44-19.7,44-44C118.2,24,98.5,4.3,74.3,4.3z"/>
	<g>
		<polyline class="st0" points="78.4,70.3 78.4,44.2 60.3,44.2 		"/>
		<polyline class="st0" points="67.9,44.2 67.9,70.3 85.9,70.3 		"/>
	</g>
	<path class="st0" d="M79.2,29.1c0,3.4-2.7,6.1-6.1,6.1c-3.4,0-6.1-2.7-6.1-6.1c0-3.4,2.7-6.1,6.1-6.1C76.5,23,79.2,25.7,79.2,29.1z
		"/>
</g>
</svg>
