<svg xmlns="http://www.w3.org/2000/svg" viewBox="0 0 298.84 294.72"><defs><style>.cls-1{opacity:0.4;}.cls-2{fill:#808184;}.cls-3{fill:#de1d37;}.cls-4{fill:#231f20;}.cls-5{fill:#ee4324;}.cls-6{fill:#d63c20;}</style></defs><title>bike2</title><g id="Lag_2" data-name="Lag 2"><g id="Lag_1-2" data-name="Lag 1"><g class="cls-1"><ellipse class="cls-2" cx="182.71" cy="288.56" rx="47.76" ry="6.16"/></g><g class="cls-1"><ellipse class="cls-2" cx="39.93" cy="282.26" rx="23.71" ry="3.21"/></g><path class="cls-3" d="M203.77,148.29h-15.5a2,2,0,1,1,0-4.07h15.5a2,2,0,1,1,0,4.07Z"/><path class="cls-4" d="M40.36,282.27C15.09,282.27,0,261.36,0,241.14c0-22.62,17.27-40.35,39.32-40.35a40.4,40.4,0,0,1,40.35,40.35C79.68,263.81,62,282.27,40.36,282.27Zm-1-75.48C20.63,206.78,6,221.88,6,241.14c0,17.27,12.85,35.13,34.36,35.13,18.37,0,33.33-15.76,33.33-35.13A34.39,34.39,0,0,0,39.32,206.78Z"/><rect class="cls-4" x="38.72" y="203.78" width="1.2" height="34.6"/><rect class="cls-4" x="38.72" y="244.13" width="1.2" height="35.13"/><rect class="cls-4" x="3" y="240.54" width="33.34" height="1.2"/><rect class="cls-4" x="42.31" y="240.54" width="34.37" height="1.2"/><polygon class="cls-4" points="41.55 239.19 40.7 238.34 65.02 214.02 65.87 214.86 41.55 239.19"/><rect class="cls-4" x="7.64" y="254.54" width="34.36" height="1.19" transform="translate(-173.14 92.28) rotate(-45)"/><polygon class="cls-4" points="65.79 269.19 41.08 243.55 41.94 242.72 66.65 268.36 65.79 269.19"/><polygon class="cls-4" points="36.72 239.59 11.55 216.31 12.37 215.43 37.54 238.71 36.72 239.59"/><polygon class="cls-4" points="53.77 276.81 39.93 244.36 41.03 243.89 54.87 276.34 53.77 276.81"/><polygon class="cls-4" points="6.18 256.6 5.68 255.52 36.08 241.56 36.59 242.65 6.18 256.6"/><rect class="cls-4" x="40.72" y="232.63" width="34.97" height="1.2" transform="translate(-83.69 39.19) rotate(-22.16)"/><rect class="cls-4" x="29.44" y="221.64" width="34.77" height="1.2" transform="translate(-176.94 183.32) rotate(-68.23)"/><rect class="cls-4" x="57.29" y="231.85" width="1.2" height="34.39" transform="translate(-194.21 206.36) rotate(-67.31)"/><rect class="cls-4" x="13.71" y="259.55" width="35.33" height="1.2" transform="translate(-221.95 193.13) rotate(-68.3)"/><polygon class="cls-4" points="37.35 238.62 23.8 206.99 24.91 206.52 38.45 238.14 37.35 238.62"/><rect class="cls-4" x="20.48" y="217.35" width="1.2" height="32.93" transform="translate(-202.33 161.69) rotate(-66.96)"/><circle class="cls-4" cx="39.32" cy="241.14" r="5.98"/><path class="cls-3" d="M182.34,168.28l-2.68-2.4c.07-.08,2.12-2.49,14.88-20.66l2.94,2.07C184.35,166,182.42,168.2,182.34,168.28Z"/><path class="cls-4" d="M182.88,288.55c-34.32,0-65.43-13.72-87.6-38.63A126.33,126.33,0,0,1,63.71,167c0-66.83,50.93-119.18,116-119.18A119.31,119.31,0,0,1,298.84,167c0,32.15-11.8,62.47-33.23,85.39A112.29,112.29,0,0,1,182.88,288.55ZM179.67,53.81c-61.66,0-110,49.71-110,113.18,0,56.8,42.34,115.57,113.18,115.57,60.64,0,110-51.84,110-115.57A113.3,113.3,0,0,0,179.67,53.81Z"/><rect class="cls-4" x="179.07" y="50.81" width="1.2" height="107.59"/><rect class="cls-4" x="179.07" y="176.28" width="1.2" height="109.24"/><rect class="cls-4" x="66.71" y="166.39" width="103.67" height="1.2"/><rect class="cls-4" x="188.96" y="166.39" width="106.88" height="1.2"/><polygon class="cls-4" points="185.7 160.02 184.85 159.18 260.49 83.53 261.34 84.38 185.7 160.02"/><rect class="cls-4" x="81.13" y="209.92" width="106.88" height="1.2" transform="translate(-109.32 156.25) rotate(-44.87)"/><polygon class="cls-4" points="262.88 253.34 186.04 173.59 186.91 172.77 263.74 252.51 262.88 253.34"/><polygon class="cls-4" points="172.46 161.23 94.18 88.84 95 87.96 173.27 160.35 172.46 161.23"/><polygon class="cls-4" points="225.76 277.4 182.71 176.52 183.81 176.04 226.86 276.92 225.76 277.4"/><rect class="cls-4" x="71.09" y="191.09" width="104.04" height="1.19" transform="translate(-68.71 68.78) rotate(-24.64)"/><rect class="cls-4" x="184.01" y="141.81" width="108.77" height="1.2" transform="translate(-36.27 101.53) rotate(-22.39)"/><rect class="cls-4" x="148.93" y="107.61" width="108.12" height="1.2" transform="translate(27.21 256.6) rotate(-68.23)"/><rect class="cls-4" x="236.79" y="138.09" width="1.21" height="106.93" transform="translate(-30.95 336.62) rotate(-67.3)"/><rect class="cls-4" x="100.03" y="225.52" width="109.85" height="1.2" transform="translate(-112.58 285.86) rotate(-68.16)"/><polygon class="cls-4" points="174.71 158.63 132.57 60.3 133.67 59.84 175.81 158.16 174.71 158.63"/><polygon class="cls-4" points="169.83 164.81 75.6 124.73 76.07 123.63 170.3 163.7 169.83 164.81"/><path class="cls-4" d="M187.07,163.53a6.73,6.73,0,0,0-3.1-4.47l.12-123.78H175l.15,123.91a6.53,6.53,0,0,0-2.9,6.58c.68,3.73,4.54,6.24,8.63,5.63S187.75,167.26,187.07,163.53Z"/><path class="cls-5" d="M186.33,167a6.66,6.66,0,1,0-6.66,6.66A6.67,6.67,0,0,0,186.33,167Z"/><path class="cls-4" d="M179.67,179.27A12.29,12.29,0,1,1,192,167,12.3,12.3,0,0,1,179.67,179.27Zm0-18.58A6.3,6.3,0,1,0,186,167,6.3,6.3,0,0,0,179.67,160.7Z"/><path class="cls-4" d="M42.32,239.88h-6c0-54.33,9.32-99.09,27.69-133.06C88.56,61.44,128.88,36.37,183.87,32.3l.44,6C67,47,42.32,152.7,42.32,239.88Z"/><path class="cls-6" d="M124.54,33.57C51.12,50.38,68.82,58.05,68.82,58.05S82.16,62,94.1,61.47a134.5,134.5,0,0,1,48.83-26.2C142.55,32.74,139.17,30.22,124.54,33.57Z"/><path class="cls-3" d="M166.32,188a1.84,1.84,0,0,1-.52-.25,1.79,1.79,0,0,1-.45-2.51s13.71-19.12,13.8-19.23a1.81,1.81,0,0,1,2.72,2.39c-.08.09-13.56,18.91-13.56,18.91A1.8,1.8,0,0,1,166.32,188Z"/><path class="cls-3" d="M173.34,188.73H157.83a2.05,2.05,0,1,1,0-4.09h15.51a2.05,2.05,0,1,1,0,4.09Z"/><path class="cls-6" d="M169.4,5c-3.95.79-2.27,7.37,1.65,6.59,6-1.19,12.32-5.41,18.49-5A16.24,16.24,0,0,0,187.81,0C181.63.44,175.89,3.7,169.4,5Z"/><path d="M204.91,12.58c-.71-4.75-5.12-9.83-9.62-11.4a18.11,18.11,0,0,0-5.43-1,18.25,18.25,0,0,1,1.43,6.09,11,11,0,0,1,2.69.84c2.28,1.09,3.93,3.55,4.82,5.83,1.75,4.48-2,6.69-5.84,7.55-4.41,1-10.53,1.51-13,6-2.75,5-2.79,10.52-2.6,16,.13,3.85,6.13,3.86,6,0-.15-4.3-1-11.05,3-14,2.9-2.17,7.83-2,11.22-3C203.4,23.74,205.76,18.23,204.91,12.58Z"/></g></g></svg>