<svg xmlns="http://www.w3.org/2000/svg" viewBox="0 0 369.71 217"><defs><style>.cls-1{opacity:0.4;}.cls-2{fill:#808184;}.cls-3{fill:#231f20;}.cls-4{fill:#d63c20;}.cls-5{fill:none;stroke:#f05822;stroke-miterlimit:10;}.cls-6{fill:#9595a2;}.cls-7{fill:#ee4324;}</style></defs><title>bike1</title><g id="Lag_2" data-name="Lag 2"><g id="Lag_1-2" data-name="Lag 1"><g class="cls-1"><ellipse class="cls-2" cx="296.72" cy="211.71" rx="39.01" ry="5.29"/></g><g class="cls-1"><ellipse class="cls-2" cx="72.98" cy="210.12" rx="39.01" ry="5.29"/></g><path class="cls-3" d="M165.69,152.09l-4-1.34c10.41-31,12.07-34.67,12.14-34.81l3.82,1.77C177.59,117.85,175.85,121.85,165.69,152.09Z"/><path class="cls-4" d="M182.42,119.73H167.54a2.18,2.18,0,0,1,0-4.36h14.88a2.18,2.18,0,1,1,0,4.36Z"/><path class="cls-3" d="M302.63,137.91,259.05,34.34l-1.31-3.12L246.85,5.33a3.69,3.69,0,0,0-4.69-2.09,3.64,3.64,0,0,0-1.78,4.81l9.48,22.54H132.33l-5.51-18.54a3.67,3.67,0,0,0-4.42-2.55,3.61,3.61,0,0,0-2.31,4.54l7,23.57L75.68,135.7l-.81-.12c-1.61-.25-3.06,1.15-3.34,3.07a3.81,3.81,0,0,0,.65,2.84,2.58,2.58,0,0,0,1.71,1l1.5.21a3.42,3.42,0,0,0,.43.26,3.61,3.61,0,0,0,2.88.2l84.81,12,.33,0a2.69,2.69,0,0,0,1.72-.66,3.85,3.85,0,0,0,.63-.5L262,59.46l34.15,81.17a3.73,3.73,0,0,0,3.4,2.36h0a3.32,3.32,0,0,0,1.29-.26A3.65,3.65,0,0,0,302.63,137.91Zm-142.88,9.67L83.06,136.74,130,47.27Zm99.33-95.09-93,91.82-31.46-106,.39-.75H252.82Z"/><path class="cls-3" d="M296.65,211.71h0A73,73,0,0,1,283.17,67a73.78,73.78,0,0,1,13.64-1.28,73,73,0,0,1-.15,146Zm.15-137.55a64.85,64.85,0,0,0-12.07,1.14,64.55,64.55,0,0,0,11.92,128h0a65.45,65.45,0,0,0,12.07-1.13,64.55,64.55,0,0,0-11.91-128Z"/><rect class="cls-3" x="298.46" y="69.36" width="1.4" height="137.5" transform="translate(-18.94 52.18) rotate(-9.66)"/><rect class="cls-3" x="228.78" y="139.12" width="137.52" height="1.41" transform="translate(-24.71 204.88) rotate(-36.58)"/><rect class="cls-3" x="296.04" y="69.93" width="1.4" height="137.53" transform="translate(53.71 358.29) rotate(-67.15)"/><polygon class="cls-3" points="271.46 202.69 270.16 202.15 323.06 77.08 324.36 77.63 271.46 202.69"/><polygon class="cls-3" points="228.55 147.65 228.38 146.26 365.04 129.65 365.21 131.04 228.55 147.65"/><rect class="cls-3" x="296.3" y="69.74" width="1.41" height="137.55" transform="translate(-23.6 206.38) rotate(-36.96)"/><circle class="cls-3" cx="299.37" cy="139.2" r="5.84" transform="translate(-20.64 58) rotate(-10.7)"/><path class="cls-4" d="M140.86.32c-12.76,3.37-47.33,1-47.33,1s19.32,21.43,30.78,16.47c0,0,23-10.13,32.89-8.45C157.2,9.34,162.93-2,140.86.32Z"/><path class="cls-4" d="M245.17,6.66a3.6,3.6,0,0,0-4.59-2.23l-21.2,7.34a3.61,3.61,0,0,0-2.23,4.59h0a3.61,3.61,0,0,0,4.59,2.23l21.2-7.34a3.61,3.61,0,0,0,2.23-4.58Z"/><path class="cls-5" d="M235,162"/><path class="cls-3" d="M73,210.11a73,73,0,1,1,73-73A73.06,73.06,0,0,1,73,210.11ZM73,72.59a64.55,64.55,0,1,0,64.54,64.55A64.62,64.62,0,0,0,73,72.59Z"/><polygon class="cls-3" points="74.93 205.73 73.53 205.72 76.03 68.23 77.44 68.26 74.93 205.73"/><rect class="cls-3" x="4.82" y="137.67" width="137.52" height="1.4" transform="translate(-53.03 46.01) rotate(-25.89)"/><rect class="cls-3" x="72.29" y="68.35" width="1.41" height="137.53" transform="translate(-81.62 122.15) rotate(-56.44)"/><rect class="cls-3" x="5.39" y="137.68" width="135.79" height="1.4" transform="translate(-82.49 122.47) rotate(-56.26)"/><rect class="cls-3" x="72.35" y="68.25" width="1.4" height="137.67" transform="translate(-68.54 200.95) rotate(-86.22)"/><rect class="cls-3" x="72.59" y="68.21" width="1.41" height="137.55" transform="translate(-53.02 46.53) rotate(-26.25)"/><path class="cls-5" d="M11.13,161.9"/><path class="cls-6" d="M160.78,174.18l-.14-.05L70,138.44l93.14-9.16a22.14,22.14,0,0,1,21.13,23.23c-.59,11.69-10.6,21-23.29,21.66ZM75.9,139.27,161,172.76c11.9-.68,21.26-9.4,21.81-20.32a20.73,20.73,0,0,0-19.69-21.76Z"/><path class="cls-4" d="M163.29,175a23.56,23.56,0,1,1,16.07-6.34A23.59,23.59,0,0,1,163.29,175Zm0-42.9a19.35,19.35,0,1,0,19.34,19.34A19.3,19.3,0,0,0,163.29,132.08Z"/><circle cx="163.29" cy="151.42" r="4.55"/><circle class="cls-3" cx="75.48" cy="138.1" r="5.84"/><circle class="cls-7" cx="163.29" cy="151.42" r="5.02"/><path class="cls-3" d="M151.72,187.15a2,2,0,0,1-.67-.11,2.11,2.11,0,0,1-1.33-2.67c10-30,11.62-33.55,11.69-33.69a2.11,2.11,0,0,1,3.83,1.77c-.06.13-1.74,4-11.52,33.25A2.11,2.11,0,0,1,151.72,187.15Z"/><path class="cls-4" d="M159.39,187.15H144.5a2.18,2.18,0,0,1,0-4.36h14.88a2.18,2.18,0,1,1,0,4.36Z"/></g></g></svg>