<svg xmlns="http://www.w3.org/2000/svg" viewBox="0 0 292.66 250.66"><defs><style>.cls-1{opacity:0.4;}.cls-2{fill:#808184;}.cls-3{fill:#231f20;}.cls-4{fill:#d63c20;}.cls-5{fill:#f05822;}</style></defs><title>bike3</title><g id="Lag_2" data-name="Lag 2"><g id="Lag_1-2" data-name="Lag 1"><g class="cls-1"><ellipse class="cls-2" cx="54.83" cy="244.7" rx="33.35" ry="4.51"/></g><g class="cls-1"><path class="cls-2" d="M259.1,244.7c0,3.29-19.67,6-43.94,6s-43.95-2.67-43.95-6,19.67-5.95,43.95-5.95S259.1,241.41,259.1,244.7Z"/></g><path class="cls-3" d="M218,169.19l-3.67-3.28c.09-.11,2.9-3.41,20.39-28.34l4,2.83C220.74,166.07,218.11,169.08,218,169.19Z"/><path class="cls-4" d="M247.38,141.78H226.12a2.81,2.81,0,1,1,0-5.59h21.26a2.81,2.81,0,1,1,0,5.59Z"/><polygon class="cls-3" points="211.84 174.45 218.48 173.38 196.08 34.07 189.45 35.13 211.84 174.45"/><path class="cls-3" d="M63.19,185.47c28.32-57.74,58.56-80.82,58.86-81l.48-.44C134.22,91,188,82.19,207.72,79.9c9.78-1.14,18.87-3.45,19-12.63a8.63,8.63,0,0,0-2.49-6.35c-3.67-3.74-10.1-3.85-10.82-3.83L113,59.23c-1.59.15-39,3.71-52.18,24.24-2.94,3.32-29.37,35.34-13.43,95.78l6.49-1.7C38.4,118.74,65.72,88.09,66,87.79l.37-.49c11-17.45,45-21.16,47.15-21.37l100-2.12c1.32,0,4.63.46,6,1.83a1.92,1.92,0,0,1,.56,1.51c0,1.82-.08,4.58-13.1,6.08-3,.35-73,8.67-89.17,26-3.29,2.53-32.59,26.13-60.62,83.26Z"/><path class="cls-3" d="M64.35,189.87a9.51,9.51,0,1,0-9.52,9.51A9.52,9.52,0,0,0,64.35,189.87Z"/><path class="cls-3" d="M137.66,167.2a77.5,77.5,0,1,1,77.5,77.5A77.59,77.59,0,0,1,137.66,167.2Zm6.71,0a70.79,70.79,0,1,0,70.79-70.79A70.87,70.87,0,0,0,144.37,167.2Z"/><path class="cls-3" d="M0,189.87A54.83,54.83,0,1,1,54.83,244.7,54.89,54.89,0,0,1,0,189.87Zm6.71,0a48.12,48.12,0,1,0,48.12-48.12A48.16,48.16,0,0,0,6.71,189.87Z"/><path class="cls-4" d="M88.84,58.94c-13.29-19.62,14.74-13.5,14.74-13.5l34.68.43c13.53.6,13.71,5.81,13.14,8.07l-42.1.9A115.41,115.41,0,0,0,88.84,58.94Z"/><path d="M176.64.48c1.45-.33,9.94-2,17.19,3.73,6.9,5.44,10.23,15.51,9.91,29.93l-.07,3.28H188.06a3.36,3.36,0,1,1,0-6.71h9c-.23-10.24-2.72-17.53-7.29-21.17a14.12,14.12,0,0,0-10.93-2.65,0,0,0,0,0,0,0A18.63,18.63,0,0,0,176.64.48Z"/><path class="cls-4" d="M154,7.62c7.32-2,13.61-6.24,20.64-7.25.07.11.14.26.21.39s0,.06,0,.1A18.56,18.56,0,0,1,177,7.23a0,0,0,0,1,0,0c0,.18.07.36.11.55-7.1,0-14,5.35-20.74,7.21C152,16.23,149.51,8.85,154,7.62Z"/><path class="cls-3" d="M41.11,189.87a13.72,13.72,0,1,1,13.72,13.72A13.73,13.73,0,0,1,41.11,189.87Zm5,0a8.68,8.68,0,1,0,8.68-8.68A8.69,8.69,0,0,0,46.15,189.87Z"/><polygon class="cls-3" points="141.46 175.59 289.36 164.15 289.2 161.88 141.28 173.31 141.46 175.59"/><polygon class="cls-3" points="262.56 224.21 264.29 222.7 166.49 111.28 164.76 112.8 262.56 224.21"/><polygon class="cls-3" points="190.52 237.18 244.87 99.22 242.74 98.38 188.38 236.34 190.52 237.18"/><path class="cls-5" d="M224.31,167.42a9.14,9.14,0,1,0-9.13,9.13A9.16,9.16,0,0,0,224.31,167.42Z"/><path class="cls-3" d="M201.44,167.2a13.72,13.72,0,1,1,13.72,13.72A13.74,13.74,0,0,1,201.44,167.2Zm5,0a8.68,8.68,0,1,0,8.68-8.67A8.69,8.69,0,0,0,206.48,167.2Z"/><path class="cls-3" d="M195.69,196.11a2.18,2.18,0,0,1-.72-.35,2.46,2.46,0,0,1-.62-3.44s18.8-26.21,18.92-26.36a2.48,2.48,0,0,1,3.74,3.26c-.12.14-18.59,25.92-18.59,25.92A2.48,2.48,0,0,1,195.69,196.11Z"/><path class="cls-4" d="M205.31,197.06H184.06a2.82,2.82,0,1,1,0-5.61h21.26a2.82,2.82,0,1,1,0,5.61Z"/><rect class="cls-3" x="3.48" y="188.85" width="102.93" height="2.29" transform="translate(-117.11 92.46) rotate(-44.32)"/><polygon class="cls-3" points="104.9 201.87 105.4 199.63 4.89 177.29 4.4 179.54 104.9 201.87"/><rect class="cls-3" x="52.64" y="139.07" width="2.3" height="102.93" transform="translate(-94.44 59.3) rotate(-32.71)"/></g></g></svg>