<svg xmlns="http://www.w3.org/2000/svg" viewBox="0 0 160.83 160.83"><defs><style>.cls-1,.cls-3{fill:#fff;}.cls-1,.cls-2,.cls-4{stroke:#000;}.cls-1,.cls-2{stroke-miterlimit:10;stroke-width:2px;}.cls-2,.cls-4{fill:none;}.cls-4{stroke-width:4px;}</style></defs><title>bikeblackrsv</title><g id="Layer_2" data-name="Layer 2"><g id="Lag_1" data-name="Lag 1"><path class="cls-1" d="M80.4,11.54h.16a68.88,68.88,0,0,1-.15,137.75h-.15A68.88,68.88,0,0,1,80.4,11.54M80.4,1a79.42,79.42,0,0,0-.16,158.83h.17A79.42,79.42,0,0,0,80.59,1Z"/><path class="cls-2" d="M80.4,17.17h.15a63.25,63.25,0,0,1-.14,126.49h-.13A63.25,63.25,0,0,1,80.4,17.17m0-9.67a72.92,72.92,0,0,0-.15,145.83h.16A72.92,72.92,0,0,0,80.57,7.5Z"/><ellipse class="cls-3" cx="80.42" cy="80.42" rx="71" ry="71.5"/><circle class="cls-4" cx="47.72" cy="93.67" r="20.38"/><circle class="cls-4" cx="113.11" cy="93.67" r="20.38"/><polygon class="cls-4" points="63.94 59.08 95.04 59.08 111.78 93.77 80.69 93.77 63.94 59.08"/><polyline class="cls-4" points="76.13 46.78 67.49 46.78 45.87 94.33"/><line class="cls-4" x1="89.56" y1="52.2" x2="100.06" y2="52.2"/><line class="cls-4" x1="94.04" y1="60.06" x2="80.61" y2="92.94"/></g></g></svg>