<?xml version="1.0" encoding="utf-8"?>
<!-- Generator: Adobe Illustrator 22.0.1, SVG Export Plug-In . SVG Version: 6.00 Build 0)  -->
<svg version="1.1" id="Layer_1" xmlns="http://www.w3.org/2000/svg" xmlns:xlink="http://www.w3.org/1999/xlink" x="0px" y="0px"
	 viewBox="0 0 135.7 101.3" style="enable-background:new 0 0 135.7 101.3;" xml:space="preserve">
<style type="text/css">
	.st0{fill:none;stroke:#000000;stroke-width:4;}
	.st1{fill:none;stroke:#A50D12;stroke-width:4;}
</style>
<g>
	<path class="st0" d="M66.5,80h21.8c3.5,0,6.4,2.9,6.4,6.4l0,0c0,3.5-2.9,6.4-6.4,6.4H55.5"/>
	<path class="st0" d="M91.7,67.2h13.5c3.5,0,6.4,2.9,6.4,6.4l0,0c0,3.5-2.9,6.4-6.4,6.4H66.5"/>
	<path class="st0" d="M107.2,54.3h7.5c3.5,0,6.4,2.9,6.4,6.4l0,0c0,3.5-2.9,6.4-6.4,6.4H93.9"/>
	<path class="st1" d="M49.7,42.4l0,25.1l39.1,0c10.7-0.1,19.4-8.8,19.4-19.5c0-10.7-8.7-19.4-19.4-19.5C88.6,17.7,79.9,9,69.2,9
		c-10.7,0-19.4,8.7-19.5,19.4"/>
	<path class="st0" d="M69.9,27.9c0,8.4-6.7,14.3-15.1,14.3h-8.3"/>
	<path class="st0" d="M70.1,27.7H40.8c-12.1,0-26.7,14.6-26.7,32.6l0,0c0,18,14.6,32.6,32.6,32.6h34.4"/>
</g>
</svg>
