<?xml version="1.0" encoding="utf-8"?>
<!-- Generator: Adobe Illustrator 22.0.1, SVG Export Plug-In . SVG Version: 6.00 Build 0)  -->
<svg version="1.1" id="Layer_1" xmlns="http://www.w3.org/2000/svg" xmlns:xlink="http://www.w3.org/1999/xlink" x="0px" y="0px"
	 viewBox="0 0 135.7 101.3" style="enable-background:new 0 0 135.7 101.3;" xml:space="preserve">
<style type="text/css">
	.st0{stroke:#000000;stroke-miterlimit:10;}
	.st1{fill:none;stroke:#000000;stroke-width:4;}
	.st2{fill:none;stroke:#000000;stroke-width:4;stroke-linejoin:bevel;}
	.st3{fill:none;stroke:#A10007;stroke-width:4;}
</style>
<g>
	<g>
		<g>
			<g>
				<path class="st0" d="M67.3,24.6L67.3,24.6c7,0,13.6,2.8,18.5,7.7c4.9,5,7.6,11.5,7.6,18.5c0,14.4-11.8,26.1-26.2,26.1h-0.1
					c-14.4,0-26.1-11.8-26.1-26.2C41.2,36.3,52.9,24.6,67.3,24.6 M67.3,20.6c-16.6,0-30.1,13.5-30.1,30.1
					c0,16.6,13.5,30.2,30.1,30.2c0,0,0,0,0.1,0c16.6,0,30.1-13.5,30.2-30.1C97.5,34.2,84,20.7,67.3,20.6
					C67.4,20.6,67.3,20.6,67.3,20.6L67.3,20.6z"/>
			</g>
			<g>
				<path class="st1" d="M94.6,42.7l-3.1,4.6l-4,8.1l-2.6-5.1l-3.8,2.6l-2.6-4.6l-2.2,2.8l-4.3-0.9l0.3,2.9l2.7,1.1l-6.1,14.4
					l-2.6-5.9l-1.2-7.2l-3.5-0.2l-1.5-2.7l2-5.5l3-0.7l2.6,0.9l0.5-1.3l-1.7-2.1l-4-0.7l-0.2-1.2l3.9-2.2l-1.6-2.5l3.9-3.5l4.2,1.5
					l6.9-2.2c0,0,2.8-1.5,6-3.2"/>
				<path class="st2" d="M49.6,28.5L48.4,32L46,37.7c-0.1,0.1,1.6,2.7,1.6,2.7c0.1,0.1,2.3-2.7,2.3-2.7l3.3,4l-6.3,5.6l-3.6,0.3
					c-0.2,0,0.1,1.3,0.2,1.4l1.2,4.5l-5.9,0"/>
				<path class="st1" d="M49.1,63.1l-2.4-4.8l2.6-5.8l7.5,6.8L51.2,72l-2.1-2.6l0.1-6.1C49.2,63.2,49.2,63.1,49.1,63.1z"/>
				<path class="st1" d="M57.5,37.1l-3.1-6.5c4.5-2.3,7.5-2.8,8.7-2.9l-1.3,6L57.5,37.1z"/>
			</g>
		</g>
	</g>
	<g>
		<g>
			<g>
				<path class="st3" d="M27.6,75.9c-11.3-18.1-9-42.3,6.7-58.1c18.4-18.4,48.1-18.4,66.5,0"/>
				<polyline class="st3" points="100.7,6.9 100.7,18.6 89,18.6 				"/>
			</g>
			<g>
				<path class="st3" d="M107.6,25.7c11.5,18.2,9.4,42.5-6.5,58.4c-18.4,18.4-48.1,18.4-66.5,0"/>
				<polyline class="st3" points="34.8,94.9 34.8,83.3 46.4,83.3 				"/>
			</g>
		</g>
	</g>
</g>
</svg>
