<?xml version="1.0" encoding="utf-8"?>
<!-- Generator: Adobe Illustrator 22.0.1, SVG Export Plug-In . SVG Version: 6.00 Build 0)  -->
<svg version="1.1" id="Layer_1" xmlns="http://www.w3.org/2000/svg" xmlns:xlink="http://www.w3.org/1999/xlink" x="0px" y="0px"
	 viewBox="0 0 135.7 101.3" style="enable-background:new 0 0 135.7 101.3;" xml:space="preserve">
<style type="text/css">
	.st0{fill:none;stroke:#FFFFFF;stroke-width:4;}
</style>
<g>
	<g>
		<g>
			<path class="st0" d="M33.4,58.6c0.6,0.9,1.5,1.7,2.4,2.3c0-0.6,0.1-1.3,0.4-1.9l1.4-2.7c1-1.9,3.3-2.7,5.2-1.7
				c1.9,1,2.7,3.3,1.7,5.2l-1.4,2.7c-0.3,0.6-0.8,1.1-1.3,1.5l3,1.5c0-0.7,0.1-1.3,0.4-2l3.2-6.4c1-1.9,3.3-2.7,5.2-1.7
				c1.9,0.9,2.7,3.3,1.7,5.2L52.1,67c-0.3,0.6-0.8,1.1-1.3,1.5l2.7,1.3c0-0.7,0.1-1.3,0.4-2l4-7.9c0.9-1.9,3.3-2.7,5.2-1.7
				c1.9,1,2.7,3.3,1.7,5.2l-4,7.9c-0.3,0.6-0.8,1.1-1.3,1.5l2.7,1.3c0-0.7,0.1-1.3,0.4-2l1.4-2.7c0.9-1.9,3.3-2.7,5.2-1.7
				c1.9,1,2.7,3.3,1.7,5.2l-1.4,2.7c-0.3,0.6-0.8,1.1-1.3,1.5c0.2,0.1,0.4,0.1,0.6,0.2l5.1,2.5c1.9,1,4.2,0.2,5.2-1.7
				c0.7-1.4,0.5-3-0.4-4.1c0.2-0.3,0.4-0.6,0.6-0.9l3.3,1.6c1.9,0.9,4.2,0.2,5.2-1.7c0.9-1.9,0.2-4.2-1.7-5.2l-3.2-1.6l0.3-0.7
				l7.6,3.8c1.9,0.9,4.2,0.2,5.2-1.7c1-1.9,0.2-4.2-1.7-5.2l-7.6-3.8c0.1-0.2,0.2-0.5,0.3-0.7l11.2,5.6c1.9,1,4.2,0.2,5.2-1.7
				c0.9-1.9,0.2-4.2-1.7-5.2l-19.4-9.7c-1,0-2-0.2-3-0.4c-3.9-0.9-7.1-3-9-5.6l-7.6,0.8l-0.3,1.4c-0.7,3.6-4.3,5.9-7.9,5.2L51.9,48
				c-0.1,0-0.2,0-0.3-0.1l2.7-13.1l9.6-2l4.9-0.9l4.7,1L72,28.4l-0.1,0l-9.6-1L57.3,27l-15.9,5.3"/>
			<g>
				<path class="st0" d="M98,31.7l-11.9,4l-17.4-3.8l-14.2,2.9l-0.1,0l-2.7,13.1c0.1,0,0.2,0.1,0.3,0.1l2.2,0.4
					c3.6,0.7,7.1-1.6,7.9-5.2l0.3-1.4l7.5-0.8c0,0,2.3,2.5,3.9,3.5c0,0,0,0,0,0c0.2,0.1,0.3,0.2,0.5,0.3c0,0,0.1,0,0.1,0
					c0.2,0.1,0.3,0.2,0.5,0.3c0,0,0.1,0,0.1,0.1c0.2,0.1,0.3,0.2,0.5,0.2c0.1,0,0.1,0.1,0.2,0.1c0.2,0.1,0.3,0.1,0.4,0.2
					c0.1,0,0.2,0.1,0.3,0.1c0.1,0.1,0.3,0.1,0.4,0.2c0.1,0,0.2,0.1,0.3,0.1c0.1,0,0.2,0.1,0.4,0.1c0.1,0,0.3,0.1,0.4,0.1
					c0.1,0,0.2,0.1,0.3,0.1c0.2,0.1,0.5,0.1,0.7,0.2c0.3,0.1,0.5,0.1,0.8,0.1c0,0,0.1,0,0.1,0c0.2,0,0.4,0.1,0.7,0.1c0,0,0,0,0.1,0
					c0.2,0,0.5,0.1,0.7,0.1h0c0.2,0,0.5,0,0.7,0h0l19.3,9.6l5.2-1.7"/>
				<path class="st0" d="M69,67.7c-1.9-1-4.2-0.2-5.2,1.7l-1.4,2.7c-0.9,1.9-0.2,4.2,1.7,5.2c1.9,0.9,4.2,0.2,5.2-1.7l1.4-2.7
					C71.7,71,70.9,68.7,69,67.7z"/>
				<path class="st0" d="M42.8,54.6c-1.9-1-4.2-0.2-5.2,1.7L36.3,59c-1,1.9-0.2,4.2,1.7,5.2c1.9,0.9,4.2,0.2,5.2-1.7l1.4-2.7
					C45.5,57.9,44.7,55.6,42.8,54.6z"/>
				<path class="st0" d="M63,58.2c-1.9-1-4.2-0.2-5.2,1.7l-4,7.9c-1,1.9-0.2,4.2,1.7,5.2c1.9,1,4.2,0.2,5.2-1.7l4-7.9
					C65.7,61.5,64.9,59.2,63,58.2z"/>
				<path class="st0" d="M53.6,55.4c-1.9-1-4.2-0.2-5.2,1.7l-3.2,6.4c-0.9,1.9-0.2,4.2,1.7,5.2c1.9,1,4.2,0.2,5.2-1.7l3.2-6.4
					C56.3,58.7,55.5,56.4,53.6,55.4z"/>
			</g>
		</g>
	</g>
	<g>
		
			<rect x="102.6" y="26" transform="matrix(0.9489 -0.3156 0.3156 0.9489 -7.5764 37.4676)" class="st0" width="18.6" height="32.3"/>
	</g>
	<rect x="7.9" y="31" transform="matrix(0.3158 -0.9488 0.9488 0.3158 -22.2244 53.9562)" class="st0" width="36.8" height="22.8"/>
	<line class="st0" x1="28.6" y1="54.9" x2="24.6" y2="53.6"/>
	<line class="st0" x1="110.8" y1="52.5" x2="114.2" y2="51.3"/>
</g>
</svg>
