<?xml version="1.0" encoding="utf-8"?>
<!-- Generator: Adobe Illustrator 22.0.1, SVG Export Plug-In . SVG Version: 6.00 Build 0)  -->
<svg version="1.1" id="Layer_1" xmlns="http://www.w3.org/2000/svg" xmlns:xlink="http://www.w3.org/1999/xlink" x="0px" y="0px"
	 viewBox="0 0 135.7 101.3" style="enable-background:new 0 0 135.7 101.3;" xml:space="preserve">
<style type="text/css">
	.st0{fill:none;stroke:#A50D12;stroke-width:4;}
	.st1{fill:none;stroke:#000000;stroke-width:4;}
</style>
<g>
	<g>
		<path class="st0" d="M89.5,58.2l1.6-1.6c5.7-5.7,5.7-15.1,0-20.8l-0.2-0.2c-5.7-5.7-15.1-5.7-20.8,0l-1.6,1.6l-1.6-1.6
			c-5.7-5.7-15.1-5.7-20.8,0l-0.2,0.2c-5.7,5.7-5.7,15.1,0,20.8l1.6,1.6l21,21L89.5,58.2z"/>
	</g>
	<g>
		<line class="st1" x1="67.3" y1="0" x2="67.3" y2="10.4"/>
		<line class="st1" x1="42.3" y1="7.2" x2="47.5" y2="16.2"/>
		<line class="st1" x1="24.1" y1="25.9" x2="33.1" y2="31.1"/>
		<line class="st1" x1="17.8" y1="51.1" x2="28.2" y2="51.1"/>
		<line class="st1" x1="24.9" y1="76.2" x2="33.9" y2="71"/>
		<line class="st1" x1="43.6" y1="94.3" x2="48.8" y2="85.4"/>
		<line class="st1" x1="68.9" y1="100.7" x2="68.9" y2="90.3"/>
		<line class="st1" x1="93.9" y1="93.6" x2="88.8" y2="84.6"/>
		<line class="st1" x1="112.1" y1="74.9" x2="103.1" y2="69.7"/>
		<line class="st1" x1="118.4" y1="49.6" x2="108.1" y2="49.6"/>
		<line class="st1" x1="111.3" y1="24.5" x2="102.3" y2="29.7"/>
		<line class="st1" x1="92.6" y1="6.4" x2="87.4" y2="15.4"/>
	</g>
</g>
</svg>
