<?xml version="1.0" encoding="utf-8"?>
<!-- Generator: Adobe Illustrator 22.0.1, SVG Export Plug-In . SVG Version: 6.00 Build 0)  -->
<svg version="1.1" id="Layer_1" xmlns="http://www.w3.org/2000/svg" xmlns:xlink="http://www.w3.org/1999/xlink" x="0px" y="0px"
	 viewBox="0 0 512 512" style="enable-background:new 0 0 512 512;" xml:space="preserve">
<style type="text/css">
	.st0{fill:#A10007;}
	.st1{fill:#FFFFFF;}
</style>
<g id="Edges">
</g>
<g id="Background_1_">
	<path class="st0" d="M18.8,250.1v12.8C22.1,385.3,120.7,483.6,238,492.8h36.1c118-9.3,214.9-108.5,218.1-230.1v-12.6
		C489,126.3,388.7,25.9,267.9,19.7C137.9,13.1,22.4,117.4,18.8,250.1z"/>
	<circle class="st0" cx="256" cy="256" r="256"/>
</g>
<g id="Symbol">
	<g>
		<path class="st1" d="M256.6,138.3c37.7,0,42.2,0.1,57.1,0.8c13.8,0.6,21.2,3,26.2,4.9c6.6,2.6,11.3,5.7,16.2,10.7
			c4.9,5,8,9.8,10.6,16.5c1.9,5.1,4.2,12.7,4.9,26.7c0.7,15.2,0.8,19.7,0.8,58.1s-0.1,42.9-0.8,58.1c-0.6,14-2.9,21.6-4.9,26.7
			c-2.6,6.7-5.6,11.5-10.6,16.5c-4.9,5-9.6,8.1-16.2,10.7c-5,2-12.5,4.3-26.2,4.9c-14.9,0.7-19.4,0.8-57.1,0.8s-42.2-0.1-57.1-0.8
			c-13.8-0.6-21.2-3-26.2-4.9c-6.6-2.6-11.3-5.7-16.2-10.7s-8-9.8-10.6-16.5c-1.9-5.1-4.2-12.7-4.9-26.7
			c-0.7-15.2-0.8-19.7-0.8-58.1s0.1-42.9,0.8-58.1c0.6-14,2.9-21.6,4.9-26.7c2.6-6.7,5.6-11.5,10.6-16.5c4.9-5,9.6-8.1,16.2-10.7
			c5-2,12.5-4.3,26.2-4.9C214.4,138.5,218.9,138.3,256.6,138.3 M256.6,112.4c-38.4,0-43.2,0.2-58.2,0.9c-15,0.7-25.3,3.1-34.3,6.7
			c-9.3,3.7-17.2,8.6-25,16.6c-7.9,8-12.7,16-16.3,25.5c-3.5,9.1-5.9,19.6-6.6,34.9s-0.8,20.2-0.8,59.2s0.2,43.9,0.8,59.2
			c0.7,15.3,3.1,25.7,6.6,34.9c3.6,9.4,8.4,17.5,16.3,25.5c7.9,8,15.7,12.9,25,16.6c9,3.6,19.3,6,34.3,6.7
			c15.1,0.7,19.9,0.9,58.2,0.9s43.2-0.2,58.2-0.9c15-0.7,25.3-3.1,34.3-6.7c9.3-3.7,17.2-8.6,25-16.6c7.9-8,12.7-16,16.3-25.5
			c3.5-9.1,5.9-19.6,6.6-34.9s0.8-20.2,0.8-59.2s-0.2-43.9-0.8-59.2c-0.7-15.3-3.1-25.7-6.6-34.9c-3.6-9.4-8.4-17.5-16.3-25.5
			s-15.7-12.9-25-16.6c-9-3.6-19.3-6-34.3-6.7C299.8,112.6,294.9,112.4,256.6,112.4L256.6,112.4z"/>
		<path class="st1" d="M256.6,182.3c-40.1,0-72.5,33-72.5,73.8s32.5,73.8,72.5,73.8s72.5-33,72.5-73.8S296.6,182.3,256.6,182.3z
			 M256.6,304c-26,0-47.1-21.4-47.1-47.9s21.1-47.9,47.1-47.9s47.1,21.4,47.1,47.9S282.6,304,256.6,304z"/>
		<ellipse class="st1" cx="332" cy="179.4" rx="16.9" ry="17.2"/>
	</g>
</g>
</svg>
