<?xml version="1.0" encoding="utf-8"?>
<!-- Generator: Adobe Illustrator 22.0.1, SVG Export Plug-In . SVG Version: 6.00 Build 0)  -->
<svg version="1.1" id="Layer_1" xmlns="http://www.w3.org/2000/svg" xmlns:xlink="http://www.w3.org/1999/xlink" x="0px" y="0px"
	 viewBox="0 0 21.4 20.7" style="enable-background:new 0 0 21.4 20.7;" xml:space="preserve">
<style type="text/css">
	.st0{clip-path:url(#SVGID_2_);}
</style>
<title>tools</title>
<g id="Lag_2">
	<g id="Layer_1_1_">
		<path d="M14.1,9.5c0.4-0.3,1-0.4,1.5-0.4l5.9-5.8L18.1,0l-5.9,5.8c0.1,0.5-0.1,1.1-0.4,1.5L14.1,9.5z"/>
		<g>
			<defs>
				<rect id="SVGID_1_" width="21.8" height="21"/>
			</defs>
			<clipPath id="SVGID_2_">
				<use xlink:href="#SVGID_1_"  style="overflow:visible;"/>
			</clipPath>
			<g class="st0">
				<path d="M3.9,16.6l-0.2-0.2l-1.1,0.9l-1.9,2.9l0.5,0.5l3-1.9L5,17.8l-0.2-0.2l3.7-3.7l-0.9-0.9L3.9,16.6z"/>
				<path d="M9,6.3c0.7-2.4-0.7-4.9-3.1-5.6C5,0.4,4.2,0.4,3.4,0.7L6,3.3L5.3,5.8L2.7,6.5L0.2,3.9c-0.7,2.4,0.8,4.9,3.2,5.6
					C4.2,9.7,5.1,9.7,6,9.4l0,0l10.6,10.7c0.7,1,2,1.2,3,0.5s1.2-2,0.5-3c-0.1-0.2-0.3-0.4-0.5-0.5L9,6.3z M18.4,19.7
					c-0.5,0-0.8-0.4-0.8-0.8s0.4-0.8,0.8-0.8s0.8,0.4,0.8,0.8l0,0C19.2,19.3,18.8,19.7,18.4,19.7z"/>
			</g>
		</g>
	</g>
</g>
</svg>
