<svg xmlns="http://www.w3.org/2000/svg" xmlns:xlink="http://www.w3.org/1999/xlink" viewBox="0 0 21.41 20.73"><defs><style>.cls-1{fill:none;}.cls-2{fill:#fff;}.cls-3{clip-path:url(#clip-path);}</style><clipPath id="clip-path" transform="translate(0)"><rect class="cls-1" width="21.84" height="21"/></clipPath></defs><title>toolswhite</title><g id="Lag_2" data-name="Lag 2"><g id="Layer_1" data-name="Layer 1"><path class="cls-2" d="M14.08,9.5a2.21,2.21,0,0,1,1.48-.37l5.85-5.85L18.14,0,12.28,5.85a2.2,2.2,0,0,1-.38,1.5Zm0,0" transform="translate(0)"/><g class="cls-3"><path class="cls-2" d="M3.88,16.63l-.22-.22-1.11.9L.68,20.25l.48.48,2.95-1.87L5,17.76l-.21-.22,3.72-3.72-.93-.91Zm0,0" transform="translate(0)"/><path class="cls-2" d="M9,6.3A4.56,4.56,0,0,0,3.37.67L6,3.25,5.28,5.79l-2.54.68L.16,3.88A4.56,4.56,0,0,0,6,9.41l0,0L16.64,20.07a2.15,2.15,0,1,0,3-3Zm9.39,13.4a.82.82,0,1,1,.82-.82.82.82,0,0,1-.82.82Zm0,0" transform="translate(0)"/></g></g></g></svg>