<?xml version="1.0" encoding="utf-8"?>
<!-- Generator: Adobe Illustrator 22.0.1, SVG Export Plug-In . SVG Version: 6.00 Build 0)  -->
<svg version="1.1" id="Layer_1" xmlns="http://www.w3.org/2000/svg" xmlns:xlink="http://www.w3.org/1999/xlink" x="0px" y="0px"
	 viewBox="0 0 135.7 101.3" style="enable-background:new 0 0 135.7 101.3;" xml:space="preserve">
<style type="text/css">
	.st0{fill:none;stroke:#FFFFFF;stroke-width:4;}
	.st1{fill:none;stroke:#FFFFFF;stroke-width:4;stroke-linecap:round;stroke-linejoin:round;}
</style>
<g>
	<path class="st0" d="M56.8,52.5l-6.6,6.6l-7,7c-4.6-1.4-9.8-0.3-13.5,3.4c-3.8,3.8-4.9,9.4-3.1,14.2l8.1-8.1l6.3,1.7l1.7,6.3
		l-8.1,8.1c4.8,1.8,10.4,0.7,14.2-3.1c3.7-3.7,4.8-8.9,3.4-13.5l7-7l7.3-7.3"/>
	<path class="st0" d="M75.9,51.5l9.7-9.7l7-7c4.6,1.4,9.8,0.3,13.5-3.4c3.8-3.8,4.9-9.4,3.1-14.2l-8.1,8.1l-6.3-1.7L93,17.3l8.1-8.1
		c-4.8-1.8-10.4-0.7-14.2,3.1c-3.6,3.6-4.8,8.9-3.4,13.5l-7,7l-8.3,8.3"/>
	<g>
		<path class="st0" d="M79.6,50.9c-0.7-0.7-1.9-0.7-2.6,0L76,52c-0.1-0.3-0.3-0.5-0.5-0.8l-4.1-4.1L62.6,56l4.1,4.1
			c0.2,0.2,0.5,0.4,0.8,0.5l-1.1,1.1c-0.7,0.7-0.7,1.9,0,2.6l26.9,26.9c0.7,0.7,1.9,0.7,2.6,0l10.7-10.7c0.7-0.7,0.7-1.9,0-2.6
			L79.6,50.9z"/>
		<line class="st0" x1="67" y1="51.6" x2="35.1" y2="19.7"/>
		<polygon class="st0" points="36.5,21.9 30.9,21.3 25.7,13.2 28.6,10.2 36.8,15.4 37.3,21.1 		"/>
		<line class="st1" x1="77.5" y1="62" x2="95.4" y2="79.9"/>
		<line class="st0" x1="65.2" y1="63.1" x2="78.5" y2="49.8"/>
	</g>
</g>
</svg>
