<?xml version="1.0" encoding="utf-8"?>
<!-- Generator: Adobe Illustrator 21.1.0, SVG Export Plug-In . SVG Version: 6.00 Build 0)  -->
<svg version="1.1" id="Layer_1" xmlns="http://www.w3.org/2000/svg" xmlns:xlink="http://www.w3.org/1999/xlink" x="0px" y="0px"
	 viewBox="0 0 512 512" style="enable-background:new 0 0 512 512;" xml:space="preserve">
<style type="text/css">
	.st0{fill:#A10007;}
	.st1{fill:none;stroke:#FFFFFF;stroke-width:13.0366;}
	.st2{fill:none;stroke:#FFFFFF;stroke-width:13.0366;stroke-linecap:round;stroke-linejoin:round;}
</style>
<g>
	<circle class="st0" cx="250.5" cy="256" r="256"/>
</g>
<g>
	<path class="st1" d="M214.5,262.7l-21.6,21.6L170.2,307c-15.1-4.5-32.1-0.9-43.9,11c-12.5,12.5-15.9,30.7-10.2,46.3l26.6-26.6
		l20.6,5.5l5.5,20.6l-26.6,26.6c15.6,5.7,33.8,2.4,46.3-10.2c11.9-11.9,15.6-28.9,11-43.9l22.7-22.7L246,290"/>
	<path class="st1" d="M276.8,259.3l31.6-31.7l22.7-22.7c15.1,4.5,32,0.9,43.9-11c12.5-12.5,15.9-30.7,10.2-46.3l-26.6,26.6
		l-20.6-5.5l-5.5-20.6l26.6-26.6c-15.6-5.7-33.8-2.4-46.3,10.2c-11.9,11.9-15.6,28.9-11,43.9L279,198.3l-27.1,27.1"/>
	<g>
		<path class="st1" d="M289,257.4c-2.3-2.3-6.1-2.3-8.4,0L277,261c-0.4-0.9-0.9-1.8-1.7-2.6l-13.2-13.2l-28.7,28.7l13.2,13.2
			c0.8,0.8,1.7,1.3,2.6,1.7l-3.6,3.6c-2.3,2.3-2.3,6.1,0,8.4l87.6,87.6c2.3,2.3,6.1,2.3,8.4,0l35-35c2.3-2.3,2.3-6.1,0-8.4
			L289,257.4z"/>
		<line class="st1" x1="247.9" y1="259.8" x2="143.9" y2="155.8"/>
		<polygon class="st1" points="148.4,162.9 130,161.1 113.1,134.5 122.7,124.9 149.2,141.8 151.1,160.2 		"/>
		<line class="st2" x1="281.9" y1="293.8" x2="340.2" y2="352.1"/>
		<line class="st1" x1="241.8" y1="297.2" x2="285.3" y2="253.7"/>
	</g>
</g>
</svg>
