<svg xmlns="http://www.w3.org/2000/svg" viewBox="0 0 160.83 160.83"><defs><style>.cls-1,.cls-3{fill:#fff;}.cls-1,.cls-2,.cls-4,.cls-5,.cls-6{stroke:#000;}.cls-1,.cls-2,.cls-4{stroke-miterlimit:10;}.cls-1,.cls-2{stroke-width:2px;}.cls-2,.cls-5,.cls-6{fill:none;}.cls-5,.cls-6{stroke-width:4px;}.cls-6{stroke-linejoin:bevel;}</style></defs><title>worldblackrsv</title><g id="Layer_2" data-name="Layer 2"><g id="Lag_1" data-name="Lag 1"><path class="cls-1" d="M80.4,11.54h.16a68.88,68.88,0,0,1-.15,137.75h-.15A68.88,68.88,0,0,1,80.4,11.54M80.4,1a79.42,79.42,0,0,0-.16,158.83h.17A79.42,79.42,0,0,0,80.59,1Z"/><path class="cls-2" d="M80.4,17.17h.15a63.25,63.25,0,0,1-.14,126.49h-.13A63.25,63.25,0,0,1,80.4,17.17m0-9.67a72.92,72.92,0,0,0-.15,145.83h.16A72.92,72.92,0,0,0,80.57,7.5Z"/><ellipse class="cls-3" cx="80.42" cy="80.42" rx="71" ry="71.5"/><path class="cls-4" d="M80,54.12h.06A26.15,26.15,0,0,1,80,106.41h0a26.15,26.15,0,0,1,0-52.29m0-4a30.15,30.15,0,0,0-.06,60.29H80a30.15,30.15,0,0,0,.07-60.29Z"/><path class="cls-5" d="M107.31,72.18l-3.11,4.63-4,8.13-2.56-5.06-3.8,2.55-2.56-4.58L89.1,80.61l-4.26-.86.33,2.87,2.69,1.07L81.79,98.12l-2.58-5.86L78,85.08l-3.53-.16-1.52-2.66,2-5.48,3-.69,2.63.87L81,75.7l-1.72-2.09-4-.69-.2-1.2,3.85-2.23L77.29,67l3.91-3.54,4.17,1.47,6.93-2.15s2.83-1.5,6-3.16"/><path class="cls-6" d="M62.33,58l-1.24,3.5L58.7,67.23a23.51,23.51,0,0,0,1.58,2.71,28.69,28.69,0,0,0,2.34-2.66l3.26,4-6.33,5.64L56,77.22c-.16,0,.08,1.28.17,1.4l1.15,4.53-5.87,0"/><path class="cls-5" d="M61.84,92.56l-2.45-4.77L62,82l7.5,6.81L63.9,101.5l-2.09-2.61.07-6.14A.58.58,0,0,0,61.84,92.56Z"/><path class="cls-5" d="M70.15,66.56,67,60a25.68,25.68,0,0,1,8.71-2.92l-1.35,6Z"/><path class="cls-5" d="M40.3,105.35a47,47,0,0,1,73.23-58"/><polyline class="cls-5" points="113.37 36.43 113.37 48.08 101.73 48.07"/><path class="cls-5" d="M120.31,55.14a47,47,0,0,1-73,58.39"/><polyline class="cls-5" points="47.46 124.4 47.46 112.75 59.11 112.76"/></g></g></svg>