<svg xmlns="http://www.w3.org/2000/svg" viewBox="0 0 98.34 97.78"><defs><style>.cls-1,.cls-2,.cls-3{stroke:#000;}.cls-1{stroke-miterlimit:10;}.cls-2,.cls-3{fill:none;stroke-width:4px;}.cls-3{stroke-linejoin:bevel;}</style></defs><title>worldiconblack</title><g id="Layer_2" data-name="Layer 2"><g id="Lag_1" data-name="Lag 1"><path class="cls-1" d="M48.75,22.59h.07a26.15,26.15,0,0,1-.06,52.3H48.7a26.15,26.15,0,0,1,0-52.3m0-4a30.15,30.15,0,0,0-.06,60.3h.07a30.15,30.15,0,0,0,.06-60.3Z"/><path class="cls-2" d="M76.06,40.65,73,45.28l-4,8.14-2.56-5.07-3.8,2.55L60,46.32l-2.17,2.76-4.27-.86.34,2.88,2.69,1.06L50.54,66.59,48,60.73l-1.24-7.18-3.53-.15-1.52-2.66,2-5.49,3-.69,2.62.87.51-1.25L48,42.08l-4-.69-.21-1.2L47.68,38,46,35.45,50,31.91l4.17,1.46,6.93-2.15,6-3.16"/><path class="cls-3" d="M31.08,26.42l-1.23,3.5-2.4,5.79A26.06,26.06,0,0,0,29,38.42a30.05,30.05,0,0,0,2.34-2.66l3.26,4L28.3,45.36l-3.57.34c-.17,0,.07,1.28.16,1.39L26,51.62l-5.87,0"/><path class="cls-2" d="M30.59,61l-2.45-4.77,2.56-5.75,7.5,6.81L32.65,70l-2.08-2.6.06-6.14A.34.34,0,0,0,30.59,61Z"/><path class="cls-2" d="M38.9,35l-3.11-6.53A25.45,25.45,0,0,1,44.5,25.6l-1.34,6Z"/><path class="cls-2" d="M9.06,73.83A47,47,0,0,1,82.28,15.77"/><polyline class="cls-2" points="82.12 4.91 82.12 16.55 70.48 16.55"/><path class="cls-2" d="M89.07,23.61A47,47,0,0,1,16.05,82"/><polyline class="cls-2" points="16.21 92.87 16.21 81.23 27.86 81.23"/></g></g></svg>